# xmcd CD database file
#
# Track frame offsets:
#	150
#	39826
#	72893
#	108805
#	150374
#
# Disc length: 2470 seconds
#
# Revision: 0
# Processed by: cddbd v1.5.1PL2 Copyright (c) Steve Scherf et al.
# Submitted via: CDex 1.51
#
DISCID=2c09a405
DTITLE=Uzeb - Live à l'Olympia (WL-034)
DYEAR=1984
DGENRE=Jazz
TTITLE0=Time Square
TTITLE1=Mile "0"
TTITLE2=4:PM gate 26
TTITLE3=Le baiser sale
TTITLE4=60 rue Des Lombards
EXTD=YEAR: 1984
EXTT0=
EXTT1=
EXTT2=
EXTT3=
EXTT4=
PLAYORDER=
